<?xml version="1.0" encoding="UTF-8"?>
<svg width="50px" height="50px" viewBox="0 0 50 50" version="1.1" xmlns="http://www.w3.org/2000/svg" xmlns:xlink="http://www.w3.org/1999/xlink">
    <!-- Generator: Sketch 49 (51002) - http://www.bohemiancoding.com/sketch -->
    <title>business-icons-11</title>
    <desc>Created with Sketch.</desc>
    <defs></defs>
    <g id="Desktop" stroke="none" stroke-width="1" fill="none" fill-rule="evenodd" stroke-linecap="round">
        <g id="Раздел-2" transform="translate(-488.000000, -540.000000)" stroke="#FFFFFF" stroke-width="2">
            <g id="Group-2" transform="translate(154.000000, 495.000000)">
                <g id="Group" transform="translate(324.000000, 35.000000)">
                    <g id="business-icons-11" transform="translate(11.000000, 11.000000)">
                        <rect id="Rectangle-path" x="0" y="44" width="48" height="4" rx="2"></rect>
                        <path d="M4,20 L4,40" id="Shape"></path>
                        <path d="M14,20 L14,40" id="Shape"></path>
                        <path d="M24,20 L24,40" id="Shape"></path>
                        <path d="M34,20 L34,40" id="Shape"></path>
                        <path d="M44,20 L44,40" id="Shape"></path>
                        <path d="M1.66,14.89 C0.75,15.5 0.9,16 2,16 L46,16 C47.1,16 47.25,15.5 46.34,14.89 L25.66,1.11 C24.6343176,0.498141882 23.3556824,0.498141882 22.33,1.11 L1.66,14.89 Z" id="Shape" stroke-linejoin="round"></path>
                    </g>
                </g>
            </g>
        </g>
    </g>
</svg>